<?xml version="1.0" encoding="UTF-8" ?>
<!DOCTYPE svg PUBLIC "-//W3C//DTD SVG 1.1//EN" "http://www.w3.org/Graphics/SVG/1.1/DTD/svg11.dtd">
<svg width="4730pt" height="1060pt" viewBox="0 0 473 106" version="1.1" xmlns="http://www.w3.org/2000/svg">
  <g/>
  <g>
    <path fill="#da0632" opacity="1.00" d=" M 31.37 0.00 L 151.51 0.00 C 159.81 2.02 166.57 7.92 171.08 15.01 C 179.99 29.13 182.51 46.57 180.54 62.94 C 178.67 76.80 173.43 91.29 162.10 100.18 C 156.42 104.83 148.82 106.07 141.69 105.15 C 148.07 101.74 156.02 99.51 159.61 92.61 C 162.62 87.23 160.10 80.84 156.75 76.27 C 150.09 67.22 140.82 60.57 131.64 54.29 C 107.01 38.07 80.11 25.77 53.28 13.71 C 44.39 9.03 34.64 6.21 25.86 1.33 C 27.69 0.88 29.52 0.41 31.37 0.00 Z"/>
    <path fill="#da0632" opacity="1.00" d=" M 225.87 9.79 C 233.50 3.92 243.23 -0.24 253.01 1.00 C 256.31 1.19 259.61 0.64 262.92 0.73 C 270.01 1.77 277.34 4.39 282.09 10.01 C 285.44 13.85 287.19 18.77 288.08 23.71 C 281.02 25.67 274.06 27.95 267.06 30.11 C 266.12 26.24 264.42 22.14 260.64 20.26 C 255.36 17.58 248.99 17.88 243.45 19.56 C 238.74 21.02 235.20 25.97 236.11 30.96 C 237.83 34.82 242.35 36.15 246.10 37.22 C 254.77 39.29 263.92 40.52 271.70 45.20 C 277.86 48.92 282.11 55.74 282.24 62.99 C 282.83 73.35 277.49 83.16 270.25 90.22 C 262.22 98.01 251.15 101.89 240.15 102.73 C 229.29 103.64 217.36 102.59 208.43 95.72 C 202.02 91.06 198.71 83.06 198.69 75.27 C 206.20 73.92 213.59 71.97 221.09 70.57 C 221.71 75.37 223.99 80.30 228.59 82.44 C 235.36 85.48 243.53 85.37 250.26 82.27 C 254.54 80.36 258.11 75.90 257.26 71.01 C 256.48 67.11 252.48 65.18 249.00 64.25 C 239.72 61.75 229.88 60.52 221.43 55.63 C 216.15 52.58 212.22 47.06 211.82 40.89 C 210.93 29.05 216.44 17.00 225.87 9.79 Z"/>
    <path fill="#da0632" opacity="1.00" d=" M 309.95 1.79 C 325.97 1.80 341.99 1.65 358.01 1.87 C 364.58 2.31 371.61 3.00 377.19 6.84 C 382.86 10.93 385.50 18.13 385.38 24.96 C 385.84 39.32 375.85 52.93 362.40 57.61 C 365.87 72.21 369.04 86.87 372.37 101.50 C 363.66 101.42 354.94 101.71 346.24 101.35 C 344.03 88.20 341.25 75.14 338.79 62.03 C 333.00 62.03 327.20 61.87 321.41 62.17 C 319.12 75.36 316.32 88.46 313.76 101.60 C 306.01 101.37 298.26 101.59 290.51 101.48 C 296.97 68.24 303.43 35.01 309.95 1.79 M 330.04 19.26 C 328.16 27.79 326.63 36.40 324.93 44.98 C 332.64 44.79 340.42 45.49 348.07 44.32 C 354.72 43.48 359.72 37.45 360.86 31.09 C 361.63 26.77 359.37 21.70 354.96 20.40 C 346.77 18.68 338.35 19.52 330.04 19.26 Z"/>
    <path fill="#da0632" opacity="1.00" d=" M 399.01 1.78 C 423.68 1.75 448.34 1.77 473.00 1.77 L 473.00 2.51 C 471.51 8.74 470.53 15.08 469.20 21.34 C 460.85 21.36 452.49 21.40 444.14 21.31 C 438.72 48.00 433.64 74.76 428.37 101.48 C 420.60 101.57 412.83 101.40 405.06 101.59 C 410.21 74.86 415.45 48.14 420.74 21.44 C 412.27 21.27 403.79 21.38 395.32 21.38 C 396.39 14.82 397.75 8.31 399.01 1.78 Z"/>
    <path fill="#da0632" opacity="1.00" d=" M 22.29 3.16 C 23.80 1.97 25.30 3.71 26.61 4.36 C 34.70 9.77 43.06 16.27 46.31 25.83 C 48.85 33.31 46.10 41.49 41.28 47.41 C 31.90 59.17 18.19 66.12 5.00 72.70 C 20.14 67.64 35.53 62.17 48.54 52.68 C 54.98 47.88 61.48 40.65 60.07 31.97 C 58.64 23.26 51.26 17.44 44.82 12.20 C 52.01 16.06 58.73 20.81 64.82 26.24 C 71.52 32.47 77.43 40.56 78.05 49.97 C 78.67 59.27 73.71 67.85 67.67 74.51 C 58.84 84.10 47.71 91.23 36.28 97.32 C 32.74 99.26 28.87 100.62 25.55 102.96 C 44.35 96.95 63.26 89.89 79.42 78.32 C 87.17 72.45 95.21 64.36 94.95 53.90 C 94.44 43.98 87.14 36.29 80.05 30.12 C 87.86 34.35 95.27 39.30 102.48 44.48 C 111.11 51.02 119.96 58.12 124.99 67.94 C 128.02 73.53 127.99 80.87 123.88 85.92 C 117.67 93.81 107.90 97.56 98.71 100.77 C 92.81 102.94 86.51 103.75 80.64 106.00 L 32.70 106.00 C 25.88 104.65 19.28 101.53 14.67 96.21 C 4.12 84.40 0.39 68.16 0.00 52.69 L 0.00 52.22 C 0.49 45.09 0.97 37.89 3.10 31.02 C 6.30 20.09 12.23 9.15 22.29 3.16 Z"/>
  </g>
</svg>
